<svg xmlns="http://www.w3.org/2000/svg" width="900" height="656" viewBox="0 0 900 656">
<rect width="100%" height="100%" fill="white"/>
<polyline points="855,599 873,612 858,628 841,614 855,600 " fill="none" stroke="black" stroke-width="1"/>
<polyline points="856,595 839,614 858,631 862,622 875,612 866,608 857,595 " fill="none" stroke="black" stroke-width="1"/>
<polyline points="86,551 55,585 18,638 12,655 18,639 55,586 83,554 19,655 87,551 " fill="none" stroke="black" stroke-width="1"/>
<polyline points="108,532 112,534 101,545 88,544 107,533 " fill="none" stroke="black" stroke-width="1"/>
<polyline points="90,504 94,504 91,529 90,505 " fill="none" stroke="black" stroke-width="1"/>
<polyline points="487,485 508,516 483,529 479,528 480,522 477,531 460,536 496,525 508,517 487,486 " fill="none" stroke="black" stroke-width="1"/>
<polyline points="148,466 153,466 150,490 140,495 142,471 147,467 " fill="none" stroke="black" stroke-width="1"/>
<polyline points="154,463 158,463 155,486 159,491 151,498 118,506 118,502 150,491 153,464 " fill="none" stroke="black" stroke-width="1"/>
<polyline points="364,453 363,504 372,520 439,541 457,542 478,536 457,542 439,541 373,520 363,504 361,477 365,453 " fill="none" stroke="black" stroke-width="1"/>
<polyline points="176,446 180,450 173,469 175,447 " fill="none" stroke="black" stroke-width="1"/>
<polyline points="178,442 161,457 174,451 171,471 162,481 156,482 156,459 142,470 138,496 126,498 129,480 138,472 112,492 101,510 101,523 101,510 116,489 126,499 109,507 142,501 159,492 176,469 179,442 " fill="none" stroke="black" stroke-width="1"/>
<polyline points="158,425 163,425 164,437 173,427 176,430 153,450 158,426 " fill="none" stroke="black" stroke-width="1"/>
<polyline points="130,424 134,424 131,466 94,500 99,488 123,467 130,425 " fill="none" stroke="black" stroke-width="1"/>
<polyline points="410,396 374,402 369,407 374,402 381,403 376,414 390,400 410,396 442,403 411,396 " fill="none" stroke="black" stroke-width="1"/>
<polyline points="186,348 190,348 195,398 187,418 177,425 186,402 186,349 " fill="none" stroke="black" stroke-width="1"/>
<polyline points="613,339 624,390 624,412 624,390 613,340 " fill="none" stroke="black" stroke-width="1"/>
<polyline points="377,335 381,335 380,345 386,346 386,350 373,347 376,336 " fill="none" stroke="black" stroke-width="1"/>
<polyline points="379,329 388,333 391,345 381,344 379,330 " fill="none" stroke="black" stroke-width="1"/>
<polyline points="542,314 546,314 546,325 538,335 535,324 542,315 " fill="none" stroke="black" stroke-width="1"/>
<polyline points="526,309 519,359 509,381 492,402 454,430 487,407 506,387 519,359 527,310 " fill="none" stroke="black" stroke-width="1"/>
<polyline points="603,302 607,302 636,375 635,390 603,303 " fill="none" stroke="black" stroke-width="1"/>
<polyline points="359,291 354,319 365,331 373,326 364,330 355,316 361,318 365,312 381,314 391,306 409,307 414,312 408,304 396,303 380,314 364,311 359,317 359,292 " fill="none" stroke="black" stroke-width="1"/>
<polyline points="398,277 416,300 420,315 415,322 397,322 392,327 393,340 380,328 373,347 352,369 345,371 348,378 358,375 373,384 362,375 377,366 392,365 377,366 349,378 345,372 353,369 372,348 389,351 403,344 436,355 451,355 439,362 415,361 393,367 394,371 414,367 415,361 434,363 417,375 451,358 448,352 433,354 394,344 392,328 398,322 414,325 421,314 410,289 399,278 " fill="none" stroke="black" stroke-width="1"/>
<polyline points="286,275 289,326 327,405 342,420 371,437 406,445 377,440 344,421 327,404 305,366 289,326 286,276 " fill="none" stroke="black" stroke-width="1"/>
<polyline points="548,253 551,268 541,289 536,257 538,254 538,291 541,298 541,289 551,273 553,306 548,310 544,304 540,307 542,317 531,317 532,333 537,339 542,339 548,330 553,306 549,253 " fill="none" stroke="black" stroke-width="1"/>
<polyline points="318,246 347,253 345,257 315,255 313,249 317,246 " fill="none" stroke="black" stroke-width="1"/>
<polyline points="424,242 438,251 421,253 420,245 424,243 " fill="none" stroke="black" stroke-width="1"/>
<polyline points="321,239 302,246 305,252 299,263 308,250 314,256 296,274 318,255 335,255 348,262 337,261 336,268 326,275 319,274 312,264 314,278 305,278 315,280 340,274 324,289 306,289 298,279 293,322 297,334 338,382 297,333 293,322 296,287 320,290 338,281 329,296 355,263 355,258 341,245 322,239 " fill="none" stroke="black" stroke-width="1"/>
<polyline points="453,236 464,244 456,248 459,241 453,244 453,237 " fill="none" stroke="black" stroke-width="1"/>
<polyline points="436,228 456,230 446,248 433,247 425,236 435,228 " fill="none" stroke="black" stroke-width="1"/>
<polyline points="444,186 456,185 478,203 448,194 395,215 401,200 443,186 " fill="none" stroke="black" stroke-width="1"/>
<polyline points="451,184 400,200 387,246 397,216 444,196 444,200 430,205 450,198 447,206 467,212 478,225 443,212 431,214 420,223 434,216 448,216 467,224 480,239 459,259 428,257 428,253 464,245 467,241 457,231 474,238 453,228 437,227 415,243 408,239 405,251 440,272 443,268 428,266 415,256 452,260 468,253 482,239 476,232 478,222 451,202 461,196 477,205 490,223 483,205 452,184 " fill="none" stroke="black" stroke-width="1"/>
<polyline points="266,133 270,135 254,152 250,184 223,232 244,178 247,151 265,134 " fill="none" stroke="black" stroke-width="1"/>
<polyline points="393,126 434,136 475,177 435,136 394,126 " fill="none" stroke="black" stroke-width="1"/>
<polyline points="381,121 345,132 324,144 375,123 317,152 300,179 293,224 287,229 293,182 321,143 303,162 293,182 285,233 297,221 313,217 342,220 346,229 298,231 289,243 290,256 309,234 291,249 292,237 301,230 345,230 363,251 371,293 365,255 343,220 293,218 300,179 318,152 377,122 398,122 433,128 474,164 519,233 528,284 518,230 474,163 432,127 382,121 " fill="none" stroke="black" stroke-width="1"/>
<polyline points="508,116 556,153 602,295 539,148 508,117 " fill="none" stroke="black" stroke-width="1"/>
<polyline points="337,82 341,82 342,94 319,92 302,104 320,85 336,83 " fill="none" stroke="black" stroke-width="1"/>
<polyline points="386,60 404,64 386,61 " fill="none" stroke="black" stroke-width="1"/>
<polyline points="387,55 393,57 384,63 354,67 339,80 345,63 386,55 " fill="none" stroke="black" stroke-width="1"/>
<polyline points="425,51 433,50 471,83 397,59 424,51 " fill="none" stroke="black" stroke-width="1"/>
<polyline points="425,47 341,64 342,72 334,85 314,89 247,150 240,191 186,319 186,402 177,421 165,434 162,423 158,424 155,444 145,448 158,348 142,454 129,459 132,422 123,466 99,487 91,501 90,540 82,543 31,524 46,536 102,545 115,530 119,534 114,539 129,526 135,511 122,526 117,522 94,539 94,504 125,471 170,439 182,422 185,425 179,433 186,424 195,398 188,323 218,247 250,184 254,153 320,92 349,99 344,97 341,83 355,67 377,62 454,76 473,88 474,83 539,149 632,381 630,408 607,455 611,482 599,495 588,499 602,499 659,525 689,552 734,655 689,551 660,525 595,498 611,483 607,456 634,400 635,411 617,462 622,492 612,498 662,514 705,556 722,605 747,655 718,595 705,555 663,514 616,500 623,488 618,458 636,407 636,375 598,281 556,152 454,60 437,48 426,47 " fill="none" stroke="black" stroke-width="1"/>
</svg>